<svg xmlns="http://www.w3.org/2000/svg" viewBox="0 0 96 96"><defs><style>.a{isolation:isolate;}.b{fill:none;}.c{fill:#ec407a;}.d{fill:#29b6f6;mix-blend-mode:multiply;}</style></defs><title>icon-hammer</title><g  class="a"><rect  class="b" width="96" height="96"/><path  class="c" d="M34.84,26.64v7.49A2.82,2.82,0,0,1,32,37H27.13a2.82,2.82,0,0,1-2.82-2.82V30.86C24.3,27.71,34.84,23.43,34.84,26.64Zm9.72,8.6h9A2.42,2.42,0,0,0,56,32.82V25a2.29,2.29,0,0,0-2.42-2.42c-2.56,0-5.56,3.6-8.47,3.6H37v5.5h3.57l2.34,2.82A2.17,2.17,0,0,0,44.57,35.24Zm13.3-9.1v5.5h3A2.82,2.82,0,0,0,64,33.17l7.46-1.7a2.82,2.82,0,0,0,2.2-2.75V27.28C73.7,26,57.87,26.15,57.87,26.15ZM56,44.77a2.26,2.26,0,0,0-2.25-2.12h-.61V37H45V40.9a1.82,1.82,0,0,0,1.63,1.8c11.43,1.22-.56,21.58-1.17,38a2.8,2.8,0,0,0,2.79,2.93h6a4,4,0,0,0,3.95-4.2Z"/><path class="d" d="M34.84,18.89V32.6a2.55,2.55,0,0,1-2.55,2.55H26.86A2.55,2.55,0,0,1,24.3,32.6V18.89a2.55,2.55,0,0,1,2.55-2.55h5.44A2.55,2.55,0,0,1,34.84,18.89Zm9.72,14.56h9A2.42,2.42,0,0,0,56,31V20.47A2.42,2.42,0,0,0,53.53,18h-9a2.17,2.17,0,0,0-1.67.78l-2,2.36a1.28,1.28,0,0,1-1,.46H37v8.19h3a1.28,1.28,0,0,1,1,.46l2,2.36A2.17,2.17,0,0,0,44.57,33.44ZM71.5,21.82,64,20.12a2.82,2.82,0,0,0-2.86,1,1.28,1.28,0,0,1-1,.51h-2.3v8.19h2.3a1.28,1.28,0,0,1,1,.51,2.82,2.82,0,0,0,2.86,1l7.46-1.7a2.82,2.82,0,0,0,2.2-2.75V24.58A2.82,2.82,0,0,0,71.5,21.82ZM56,43a2.26,2.26,0,0,0-2.25-2.12h-.61v-5.7H45v5.7h-.49a2.26,2.26,0,0,0-2.26,2.21l-.73,34.76a4,4,0,0,0,4,4h8.8a4,4,0,0,0,3.95-4.2Z"/></g></svg>